<svg xmlns="http://www.w3.org/2000/svg" width="805" height="600"><rect width="805" height="600" x="0" y="0" fill="#FFFFFF" id="backgorund"/><g id="viz"><g transform="translate(0,0)"><g transform="translate(10,20)"><g><path fill="rgb(137, 207, 165)" d="M0,11.000000000000012C19.625,11.000000000000012,19.625,9.440000000000012,39.25,9.440000000000012C58.875,9.440000000000012,58.875,8.880000000000011,78.5,8.880000000000011C98.125,8.880000000000011,98.125,6.080000000000009,117.75,6.080000000000009C137.375,6.080000000000009,137.375,5.5200000000000085,157,5.5200000000000085C176.625,5.5200000000000085,176.625,5.5200000000000085,196.25,5.5200000000000085C215.875,5.5200000000000085,215.875,6.080000000000009,235.5,6.080000000000009C255.125,6.080000000000009,255.125,5.5200000000000085,274.75,5.5200000000000085C294.375,5.5200000000000085,294.375,7.7600000000000104,314,7.7600000000000104C333.625,7.7600000000000104,333.625,7.7600000000000104,353.25,7.7600000000000104C372.875,7.7600000000000104,372.875,7.20000000000001,392.5,7.20000000000001C412.125,7.20000000000001,412.125,7.7600000000000104,431.75000000000006,7.7600000000000104C451.375,7.7600000000000104,451.375,7.7600000000000104,471,7.7600000000000104C490.625,7.7600000000000104,490.625,7.7600000000000104,510.25,7.7600000000000104C529.875,7.7600000000000104,529.875,6.6400000000000095,549.5,6.6400000000000095C569.125,6.6400000000000095,569.125,5.519999999999946,588.75,5.519999999999946C608.375,5.519999999999946,608.375,3.839999999999945,628,3.839999999999945C647.625,3.839999999999945,647.625,4.96000000000007,667.25,4.96000000000007C686.875,4.96000000000007,686.875,4.959999999999946,706.5,4.959999999999946C726.125,4.959999999999946,726.125,4.4000000000000075,745.75,4.4000000000000075C765.375,4.4000000000000075,765.375,4.40000000000007,785,4.40000000000007L785,279.36000000000007C765.375,279.36000000000007,765.375,290.56,745.75,290.56C726.125,290.56,726.125,287.75999999999993,706.5,287.75999999999993C686.875,287.75999999999993,686.875,298.9600000000001,667.25,298.9600000000001C647.625,298.9600000000001,647.625,311.28,628,311.28C608.375,311.28,608.375,316.88,588.75,316.88C569.125,316.88,569.125,324.15999999999997,549.5,324.15999999999997C529.875,324.15999999999997,529.875,330.88,510.25,330.88C490.625,330.88,490.625,330.88,471,330.88C451.375,330.88,451.375,331.44,431.75000000000006,331.44C412.125,331.44,412.125,329.76,392.5,329.76C372.875,329.76,372.875,331.44,353.25,331.44C333.625,331.44,333.625,336.48,314,336.48C294.375,336.48,294.375,339.84,274.75,339.84C255.125,339.84,255.125,346,235.5,346C215.875,346,215.875,344.88,196.25,344.88C176.625,344.88,176.625,347.68,157,347.68C137.375,347.68,137.375,352.72,117.75,352.72C98.125,352.72,98.125,359.44,78.5,359.44C58.875,359.44,58.875,366.72,39.25,366.72C19.625,366.72,19.625,371.64000000000004,0,371.64000000000004Z"><title>fb</title></path><path fill="rgb(94, 79, 162)" d="M0,372.64000000000004C19.625,372.64000000000004,19.625,435.92,39.25,435.92C58.875,435.92,58.875,360.44,78.5,360.44C98.125,360.44,98.125,353.72,117.75,353.72C137.375,353.72,137.375,348.68,157,348.68C176.625,348.68,176.625,345.88,196.25,345.88C215.875,345.88,215.875,347,235.5,347C255.125,347,255.125,340.84,274.75,340.84C294.375,340.84,294.375,337.48,314,337.48C333.625,337.48,333.625,332.44,353.25,332.44C372.875,332.44,372.875,330.76,392.5,330.76C412.125,330.76,412.125,332.44,431.75000000000006,332.44C451.375,332.44,451.375,331.88,471,331.88C490.625,331.88,490.625,331.88,510.25,331.88C529.875,331.88,529.875,325.15999999999997,549.5,325.15999999999997C569.125,325.15999999999997,569.125,317.88,588.75,317.88C608.375,317.88,608.375,312.28,628,312.28C647.625,312.28,647.625,299.9600000000001,667.25,299.9600000000001C686.875,299.9600000000001,686.875,288.75999999999993,706.5,288.75999999999993C726.125,288.75999999999993,726.125,291.56,745.75,291.56C765.375,291.56,765.375,280.36000000000007,785,280.36000000000007L785,402.44000000000005C765.375,402.44000000000005,765.375,404.12,745.75,404.12C726.125,404.12,726.125,394.03999999999996,706.5,394.03999999999996C686.875,394.03999999999996,686.875,402.44000000000005,667.25,402.44000000000005C647.625,402.44000000000005,647.625,406.92,628,406.92C608.375,406.92,608.375,409.15999999999997,588.75,409.15999999999997C569.125,409.15999999999997,569.125,410.28,549.5,410.28C529.875,410.28,529.875,414.2,510.25,414.2C490.625,414.2,490.625,408.59999999999997,471,408.59999999999997C451.375,408.59999999999997,451.375,413.64,431.75000000000006,413.64C412.125,413.64,412.125,411.4,392.5,411.4C372.875,411.4,372.875,414.2,353.25,414.2C333.625,414.2,333.625,420.36,314,420.36C294.375,420.36,294.375,424.28000000000003,274.75,424.28000000000003C255.125,424.28000000000003,255.125,432.68,235.5,432.68C215.875,432.68,215.875,429.32,196.25,429.32C176.625,429.32,176.625,433.24,157,433.24C137.375,433.24,137.375,436.6,117.75,436.6C98.125,436.6,98.125,436.6,78.5,436.6C58.875,436.6,58.875,502,39.25,502C19.625,502,19.625,440.40000000000003,0,440.40000000000003Z"><title>sl</title></path><path fill="rgb(251, 248, 176)" d="M0,560C19.625,560,19.625,560,39.25,560C58.875,560,58.875,554.4,78.5,554.4C98.125,554.4,98.125,547.68,117.75,547.68C137.375,547.68,137.375,544.88,157,544.88C176.625,544.88,176.625,543.76,196.25,543.76C215.875,543.76,215.875,539.84,235.5,539.84C255.125,539.84,255.125,534.24,274.75,534.24C294.375,534.24,294.375,533.68,314,533.68C333.625,533.68,333.625,528.0799999999999,353.25,528.0799999999999C372.875,528.0799999999999,372.875,527.52,392.5,527.52C412.125,527.52,412.125,528.0799999999999,431.75000000000006,528.0799999999999C451.375,528.0799999999999,451.375,525.28,471,525.28C490.625,525.28,490.625,528.64,510.25,528.64C529.875,528.64,529.875,528.0799999999999,549.5,528.0799999999999C569.125,528.0799999999999,569.125,529.1999999999999,588.75,529.1999999999999C608.375,529.1999999999999,608.375,528.64,628,528.64C647.625,528.64,647.625,526.96,667.25,526.96C686.875,526.96,686.875,523.04,706.5,523.04C726.125,523.04,726.125,525.28,745.75,525.28C765.375,525.28,765.375,523.0400000000001,785,523.0400000000001L785,560C765.375,560,765.375,560,745.75,560C726.125,560,726.125,560,706.5,560C686.875,560,686.875,560,667.25,560C647.625,560,647.625,560,628,560C608.375,560,608.375,560,588.75,560C569.125,560,569.125,560,549.5,560C529.875,560,529.875,560,510.25,560C490.625,560,490.625,560,471,560C451.375,560,451.375,560,431.75000000000006,560C412.125,560,412.125,560,392.5,560C372.875,560,372.875,560,353.25,560C333.625,560,333.625,560,314,560C294.375,560,294.375,560,274.75,560C255.125,560,255.125,560,235.5,560C215.875,560,215.875,560,196.25,560C176.625,560,176.625,560,157,560C137.375,560,137.375,560,117.75,560C98.125,560,98.125,560,78.5,560C58.875,560,58.875,560,39.25,560C19.625,560,19.625,560,0,560Z"><title>ct</title></path><path fill="rgb(158, 1, 66)" d="M0,441.40000000000003C19.625,441.40000000000003,19.625,503,39.25,503C58.875,503,58.875,502.44,78.5,502.44C98.125,502.44,98.125,499.64,117.75,499.64C137.375,499.64,137.375,494.6,157,494.6C176.625,494.6,176.625,494.6,196.25,494.6C215.875,494.6,215.875,490.12,235.5,490.12C255.125,490.12,255.125,482.28,274.75,482.28C294.375,482.28,294.375,482.28,314,482.28C333.625,482.28,333.625,474.44,353.25,474.44C372.875,474.44,372.875,412.4,392.5,412.4C412.125,412.4,412.125,472.76,431.75000000000006,472.76C451.375,472.76,451.375,468.84,471,468.84C490.625,468.84,490.625,476.68,510.25,476.68C529.875,476.68,529.875,469.96,549.5,469.96C569.125,469.96,569.125,410.15999999999997,588.75,410.15999999999997C608.375,410.15999999999997,608.375,468.84,628,468.84C647.625,468.84,647.625,466.6,667.25,466.6C686.875,466.6,686.875,462.67999999999995,706.5,462.67999999999995C726.125,462.67999999999995,726.125,469.96,745.75,469.96C765.375,469.96,765.375,467.72,785,467.72L785,522.0400000000001C765.375,522.0400000000001,765.375,524.28,745.75,524.28C726.125,524.28,726.125,522.04,706.5,522.04C686.875,522.04,686.875,525.96,667.25,525.96C647.625,525.96,647.625,527.64,628,527.64C608.375,527.64,608.375,469.52,588.75,469.52C569.125,469.52,569.125,527.0799999999999,549.5,527.0799999999999C529.875,527.0799999999999,529.875,527.64,510.25,527.64C490.625,527.64,490.625,524.28,471,524.28C451.375,524.28,451.375,527.0799999999999,431.75000000000006,527.0799999999999C412.125,527.0799999999999,412.125,470.64,392.5,470.64C372.875,470.64,372.875,527.0799999999999,353.25,527.0799999999999C333.625,527.0799999999999,333.625,532.68,314,532.68C294.375,532.68,294.375,533.24,274.75,533.24C255.125,533.24,255.125,538.84,235.5,538.84C215.875,538.84,215.875,542.76,196.25,542.76C176.625,542.76,176.625,543.88,157,543.88C137.375,543.88,137.375,546.68,117.75,546.68C98.125,546.68,98.125,553.4,78.5,553.4C58.875,553.4,58.875,559,39.25,559C19.625,559,19.625,504.12,0,504.12Z"><title>cb</title></path><path fill="rgb(248, 142, 83)" d="M0,505.12C19.625,505.12,19.625,367.72,39.25,367.72C58.875,367.72,58.875,437.6,78.5,437.6C98.125,437.6,98.125,437.6,117.75,437.6C137.375,437.6,137.375,434.24,157,434.24C176.625,434.24,176.625,430.32,196.25,430.32C215.875,430.32,215.875,433.68,235.5,433.68C255.125,433.68,255.125,425.28000000000003,274.75,425.28000000000003C294.375,425.28000000000003,294.375,421.36,314,421.36C333.625,421.36,333.625,415.2,353.25,415.2C372.875,415.2,372.875,471.64,392.5,471.64C412.125,471.64,412.125,414.64,431.75000000000006,414.64C451.375,414.64,451.375,409.59999999999997,471,409.59999999999997C490.625,409.59999999999997,490.625,415.2,510.25,415.2C529.875,415.2,529.875,411.28,549.5,411.28C569.125,411.28,569.125,470.52,588.75,470.52C608.375,470.52,608.375,407.92,628,407.92C647.625,407.92,647.625,403.44000000000005,667.25,403.44000000000005C686.875,403.44000000000005,686.875,395.03999999999996,706.5,395.03999999999996C726.125,395.03999999999996,726.125,405.12,745.75,405.12C765.375,405.12,765.375,403.44000000000005,785,403.44000000000005L785,466.72C765.375,466.72,765.375,468.96,745.75,468.96C726.125,468.96,726.125,461.67999999999995,706.5,461.67999999999995C686.875,461.67999999999995,686.875,465.6,667.25,465.6C647.625,465.6,647.625,467.84,628,467.84C608.375,467.84,608.375,528.1999999999999,588.75,528.1999999999999C569.125,528.1999999999999,569.125,468.96,549.5,468.96C529.875,468.96,529.875,475.68,510.25,475.68C490.625,475.68,490.625,467.84,471,467.84C451.375,467.84,451.375,471.76,431.75000000000006,471.76C412.125,471.76,412.125,526.52,392.5,526.52C372.875,526.52,372.875,473.44,353.25,473.44C333.625,473.44,333.625,481.28,314,481.28C294.375,481.28,294.375,481.28,274.75,481.28C255.125,481.28,255.125,489.12,235.5,489.12C215.875,489.12,215.875,493.6,196.25,493.6C176.625,493.6,176.625,493.6,157,493.6C137.375,493.6,137.375,498.64,117.75,498.64C98.125,498.64,98.125,501.44,78.5,501.44C58.875,501.44,58.875,434.92,39.25,434.92C19.625,434.92,19.625,560,0,560Z"><title>ch</title></path></g><g id="xAxis" transform="translate(0,560)" fill="none" font-size="10" font-family="sans-serif" text-anchor="middle"><path class="domain" stroke="currentColor" d="M0,0H785"/><g class="tick" opacity="1" transform="translate(0,0)"><line stroke="currentColor" y2="6"/><text fill="currentColor" y="9" dy="0.71em">2,002</text></g><g class="tick" opacity="1" transform="translate(78.5,0)"><line stroke="currentColor" y2="6"/><text fill="currentColor" y="9" dy="0.71em">2,004</text></g><g class="tick" opacity="1" transform="translate(157,0)"><line stroke="currentColor" y2="6"/><text fill="currentColor" y="9" dy="0.71em">2,006</text></g><g class="tick" opacity="1" transform="translate(235.5,0)"><line stroke="currentColor" y2="6"/><text fill="currentColor" y="9" dy="0.71em">2,008</text></g><g class="tick" opacity="1" transform="translate(314,0)"><line stroke="currentColor" y2="6"/><text fill="currentColor" y="9" dy="0.71em">2,010</text></g><g class="tick" opacity="1" transform="translate(392.5,0)"><line stroke="currentColor" y2="6"/><text fill="currentColor" y="9" dy="0.71em">2,012</text></g><g class="tick" opacity="1" transform="translate(471,0)"><line stroke="currentColor" y2="6"/><text fill="currentColor" y="9" dy="0.71em">2,014</text></g><g class="tick" opacity="1" transform="translate(549.5,0)"><line stroke="currentColor" y2="6"/><text fill="currentColor" y="9" dy="0.71em">2,016</text></g><g class="tick" opacity="1" transform="translate(628,0)"><line stroke="currentColor" y2="6"/><text fill="currentColor" y="9" dy="0.71em">2,018</text></g><g class="tick" opacity="1" transform="translate(706.5,0)"><line stroke="currentColor" y2="6"/><text fill="currentColor" y="9" dy="0.71em">2,020</text></g><g class="tick" opacity="1" transform="translate(785,0)"><line stroke="currentColor" y2="6"/><text fill="currentColor" y="9" dy="0.71em">2,022</text></g></g><text y="556" x="785" text-anchor="end" style="font-family: Arial, sans-serif; font-size: 12px; fill: rgb(123, 123, 123); font-weight: bold;">season</text><text x="4" text-anchor="start" dominant-baseline="hanging" style="font-family: Arial, sans-serif; font-size: 12px; fill: rgb(123, 123, 123); font-weight: bold;">value</text><g id="labels"><text x="0" y="194.32" text-anchor="start" alignment-baseline="middle" style="font-family: Arial, sans-serif; font-size: 10px; fill: black; font-weight: bold;">fb</text><text x="785" y="344.40000000000003" text-anchor="end" alignment-baseline="middle" style="font-family: Arial, sans-serif; font-size: 10px; fill: black; font-weight: bold;">sl</text><text x="706.5" y="541.52" text-anchor="middle" alignment-baseline="middle" style="font-family: Arial, sans-serif; font-size: 10px; fill: black; font-weight: bold;">ct</text><text x="0" y="473.76000000000005" text-anchor="start" alignment-baseline="middle" style="font-family: Arial, sans-serif; font-size: 10px; fill: black; font-weight: bold;">cb</text><text x="39.25" y="404.32" text-anchor="middle" alignment-baseline="middle" style="font-family: Arial, sans-serif; font-size: 10px; fill: black; font-weight: bold;">ch</text></g></g><text x="4" y="4" style="font-family: Arial, sans-serif; font-size: 12px; fill: black; font-weight: bold; dominant-baseline: hanging;"/></g></g></svg>